<?xml version="1.0" standalone="no"?>
<!DOCTYPE svg PUBLIC "-//W3C//DTD SVG 20010904//EN"
 "http://www.w3.org/TR/2001/REC-SVG-20010904/DTD/svg10.dtd">
<svg version="1.0" xmlns="http://www.w3.org/2000/svg"
 width="254.000000pt" height="254.000000pt" viewBox="0 0 254.000000 254.000000"
 preserveAspectRatio="xMidYMid meet">
<metadata>
Created by potrace 1.14, written by Peter Selinger 2001-2017
</metadata>
<g transform="translate(0.000000,254.000000) scale(0.100000,-0.100000)"
fill="#000000" stroke="none">
<path d="M1085 2499 c-22 -4 -56 -10 -75 -14 -129 -22 -317 -96 -439 -173
-186 -117 -355 -306 -451 -506 -82 -171 -112 -304 -116 -511 -3 -200 15 -309
83 -483 148 -380 490 -662 913 -754 145 -32 361 -33 525 -4 360 65 701 319
873 651 26 50 51 104 57 125 1 3 11 34 22 70 22 68 39 148 48 215 6 48 7 272
1 300 -2 11 -7 42 -11 70 -4 27 -18 87 -31 134 -135 464 -529 803 -1020 876
-109 16 -297 18 -379 4z m40 -214 c58 -57 70 -89 70 -190 0 -97 -14 -136 -72
-205 -37 -45 -79 -60 -165 -60 -84 0 -120 -16 -111 -51 12 -44 63 -58 170 -45
74 9 124 -10 155 -58 16 -25 18 -43 14 -94 -13 -158 -104 -237 -258 -225 -49
4 -58 2 -72 -18 -11 -16 -12 -27 -5 -40 20 -39 65 -48 166 -36 69 9 100 -1
142 -46 32 -35 38 -101 14 -147 -21 -41 -83 -79 -121 -74 -15 2 -43 5 -62 7
-53 6 -99 -10 -112 -39 -19 -41 8 -59 95 -60 87 -1 126 -19 167 -76 44 -61 52
-103 53 -302 1 -164 -1 -185 -20 -228 -25 -54 -58 -79 -113 -85 -55 -7 -106
13 -146 55 -38 40 -39 45 -21 64 50 52 89 140 76 174 -18 51 -75 30 -99 -36
-17 -45 -55 -86 -89 -96 -110 -31 -259 66 -267 175 -2 39 -1 42 39 62 52 26
76 55 77 91 0 48 -29 52 -91 13 -60 -39 -81 -42 -138 -19 -54 21 -91 76 -94
140 l-2 49 30 -5 c17 -3 54 -5 83 -5 42 0 57 4 68 19 34 47 5 75 -77 75 -83
-1 -127 30 -155 106 -28 76 11 164 94 215 83 51 93 61 90 83 -2 12 -14 27 -27
34 -29 14 -70 0 -125 -42 l-34 -26 -5 23 c-3 13 -4 34 -2 48 1 14 3 30 4 37 3
34 56 74 122 94 81 24 103 42 93 73 -12 39 -41 45 -117 22 l-46 -14 -3 27 c-6
44 18 108 52 140 41 37 104 53 173 45 43 -5 55 -3 67 11 22 26 -6 67 -53 79
-36 9 -37 11 -31 40 9 45 28 77 66 116 41 44 63 56 114 64 l41 7 6 -37 c7 -43
43 -99 72 -112 11 -5 30 -6 43 -1 30 11 29 48 -3 95 -103 152 145 319 280 189z
m464 18 c13 -11 34 -31 44 -45 l20 -27 -35 -48 c-58 -82 -73 -138 -44 -163 30
-24 59 -8 87 51 44 92 103 122 190 99 89 -24 158 -96 166 -174 5 -44 5 -45
-32 -60 -63 -27 -102 -89 -75 -121 18 -22 45 -18 80 12 91 76 226 10 238 -117
l5 -52 -49 7 c-27 4 -56 9 -64 10 -9 2 -30 -3 -48 -11 -26 -10 -32 -19 -32
-43 0 -37 12 -45 70 -47 25 -1 55 -2 67 -3 64 -4 122 -107 108 -191 -8 -49
-78 -125 -143 -154 -47 -21 -55 -36 -42 -71 14 -36 54 -32 124 10 32 19 60 35
62 35 2 0 4 -21 4 -47 0 -86 -37 -124 -153 -158 -62 -18 -79 -37 -66 -72 11
-31 45 -37 104 -19 57 18 64 12 60 -46 -8 -97 -115 -170 -215 -147 -43 10 -67
4 -80 -21 -13 -24 23 -68 60 -74 21 -3 25 -8 23 -36 -3 -74 -99 -172 -180
-183 -31 -5 -33 -4 -47 47 -18 60 -51 96 -91 99 -47 4 -55 -25 -22 -86 33 -60
37 -100 14 -142 -47 -90 -160 -130 -246 -85 -136 69 -160 283 -46 418 41 49
75 62 170 66 111 5 138 26 97 77 -17 20 -27 22 -88 20 -172 -7 -191 0 -228 73
-16 32 -17 45 -7 98 11 65 42 133 69 156 46 37 104 54 173 51 53 -3 72 0 85
13 22 22 10 54 -28 74 -30 16 -42 16 -160 0 -73 -9 -148 68 -142 147 7 87 72
131 181 121 81 -7 120 5 129 41 11 42 -10 55 -85 54 -144 -3 -218 75 -227 238
-12 225 -6 330 22 385 37 72 152 93 223 41z"/>
<path d="M691 1892 c-26 -22 -32 -79 -17 -152 12 -57 12 -61 -9 -74 -81 -53
-145 -167 -153 -272 -5 -70 6 -94 42 -94 37 0 47 15 51 74 6 69 31 129 75 179
38 43 52 46 73 13 9 -13 32 -34 52 -46 30 -19 41 -21 61 -11 38 17 31 51 -21
100 -58 55 -74 94 -79 193 -2 44 -9 85 -15 91 -17 17 -39 17 -60 -1z"/>
<path d="M696 1387 c-29 -29 -28 -70 3 -158 l19 -53 -39 -44 c-50 -57 -81
-139 -85 -225 -4 -108 18 -147 70 -127 23 8 24 14 28 102 3 97 22 152 67 197
17 17 21 18 31 5 18 -21 76 -55 104 -60 17 -3 29 2 39 17 21 30 10 55 -37 83
-22 13 -51 35 -62 48 -21 21 -54 103 -54 131 0 33 -23 88 -41 97 -15 9 -24 6
-43 -13z"/>
<path d="M864 705 c-77 -17 -118 -45 -122 -81 -2 -23 2 -33 21 -43 20 -11 30
-9 72 14 77 40 145 26 195 -40 24 -32 58 -65 69 -65 19 0 41 32 41 58 0 34
-49 95 -102 128 -52 33 -111 43 -174 29z"/>
<path d="M1408 2039 c-26 -15 -22 -51 11 -95 81 -113 191 -142 315 -83 59 27
73 51 51 85 -19 29 -34 30 -82 4 -80 -43 -169 -18 -218 60 -25 40 -45 48 -77
29z"/>
<path d="M1859 1760 c-13 -8 -16 -26 -16 -93 0 -88 -19 -147 -63 -195 l-20
-22 -49 35 c-69 50 -121 44 -121 -12 0 -16 15 -32 55 -57 63 -41 88 -83 109
-181 15 -71 29 -95 56 -95 47 0 58 70 27 165 l-21 63 34 38 c55 63 83 137 88
231 6 112 -22 156 -79 123z"/>
<path d="M1958 1243 c-19 -5 -23 -18 -32 -97 -7 -58 -49 -138 -90 -173 l-30
-25 -25 28 c-50 60 -96 77 -125 48 -25 -25 -19 -42 28 -85 60 -54 77 -95 83
-193 5 -88 13 -106 49 -106 49 0 63 73 38 198 -4 18 -2 32 3 32 20 0 103 93
127 144 27 57 47 155 38 190 -4 20 -30 47 -41 45 -3 -1 -14 -3 -23 -6z"/>
</g>
</svg>
